<?xml version="1.0" encoding="utf-8"?>
<!-- Generator: Adobe Illustrator 16.0.0, SVG Export Plug-In . SVG Version: 6.00 Build 0)  -->
<!DOCTYPE svg PUBLIC "-//W3C//DTD SVG 1.1//EN" "http://www.w3.org/Graphics/SVG/1.1/DTD/svg11.dtd">
<svg version="1.1" id="logo" xmlns="http://www.w3.org/2000/svg" xmlns:xlink="http://www.w3.org/1999/xlink" x="0px" y="0px"
	 width="34.855px" height="12.775px" viewBox="0 0 34.855 12.775" enable-background="new 0 0 34.855 12.775" xml:space="preserve">
<g>
	<path fill="#4BABF8" d="M34.856,1.023c-0.238,0.547-0.426,1.113-0.641,1.669c-0.211,0.548-0.416,1.096-0.613,1.646
		c-0.045,0.124-0.105,0.154-0.232,0.153c-1.281-0.005-2.564,0-3.852-0.008c-0.17-0.001-0.277,0.029-0.307,0.214
		c-0.01,0.059-0.043,0.111-0.072,0.186c1.449,0,2.883,0,4.338,0c-0.947,2.527-1.891,5.033-2.631,7.658
		c-0.232-0.823-0.475-1.594-0.658-2.381c-0.092-0.397-0.08-0.818-0.113-1.23c-0.016-0.167-0.025-0.337-0.041-0.518
		c0.297,0,0.582,0,0.854,0c0.127-0.099,0.051-0.33,0.252-0.332c0.141-0.002,0.277,0.037,0.438,0.063
		c0.154-0.375,0.313-0.753,0.475-1.143c-0.189-0.034-0.365,0.037-0.561,0.021c0.039-0.1,0.076-0.19,0.111-0.281
		c-0.049-0.045-0.1-0.024-0.148-0.025c-0.875-0.001-1.752,0.002-2.629-0.004c-0.121-0.001-0.172,0.038-0.217,0.149
		c-0.201,0.508-0.414,1.012-0.629,1.524c0.184,0.043,0.359,0.002,0.531,0.025c0.029,0.055-0.02,0.086-0.039,0.121
		c-0.307,0.497-0.613,0.997-0.918,1.502c-0.051,0.082-0.107,0.109-0.201,0.107c-0.221-0.008-0.441-0.002-0.689-0.002
		c0.262-0.694,0.516-1.371,0.783-2.093c-0.072,0.059-0.113,0.088-0.15,0.119c-0.477,0.42-0.951,0.838-1.426,1.258
		c-0.07,0.063-0.143,0.094-0.238,0.094c-4.221-0.004-8.436-0.004-12.654-0.002c-0.109,0-0.18-0.035-0.239-0.121
		c-0.066-0.098-0.141-0.19-0.213-0.289c-0.055,0.017-0.071,0.068-0.099,0.105c-0.455,0.642-0.91,1.278-1.362,1.921
		c-0.046,0.064-0.098,0.114-0.177,0.146c-1.184,0.483-2.364,0.974-3.547,1.459c-0.025,0.011-0.052,0.02-0.11,0.039
		c0.046-0.071,0.073-0.116,0.103-0.157c1.681-2.313,3.361-4.621,5.038-6.938c0.077-0.104,0.153-0.152,0.288-0.148
		c0.476,0.009,0.95,0.004,1.438,0.004c-0.03,0.186-0.12,0.342-0.172,0.511c-0.014,0.043-0.033,0.084-0.048,0.126
		C13.73,6.56,13.73,6.56,13.924,6.979c0.222-0.592,0.437-1.163,0.658-1.753c-0.679,0-1.341,0-2.026,0
		c0.155-0.411,0.302-0.799,0.448-1.188c0.074-0.201,0.153-0.399,0.222-0.604C13.26,3.33,13.31,3.29,13.429,3.291
		c0.57,0.008,1.141,0,1.712,0.007C15.268,3.3,15.34,3.271,15.367,3.14c0.021-0.091,0.063-0.176,0.104-0.281
		c-0.609,0-1.196,0-1.792,0c0.025-0.164,0.095-0.298,0.146-0.438c0.168-0.455,0.344-0.906,0.507-1.362
		c0.035-0.097,0.081-0.126,0.182-0.125c0.509,0.004,1.018-0.001,1.525,0.004c0.113,0.002,0.171-0.023,0.207-0.138
		c0.07-0.22,0.162-0.433,0.241-0.649c0.024-0.068,0.052-0.112,0.141-0.111c0.53,0.005,1.06,0.003,1.607,0.003
		c-0.105,0.297-0.213,0.58-0.328,0.887c0.359,0,0.699,0,1.039,0c0.016,0.104-0.033,0.171-0.061,0.243
		c-0.191,0.512-0.389,1.021-0.574,1.535c-0.039,0.108-0.084,0.16-0.209,0.153c-0.254-0.013-0.51,0.005-0.764-0.007
		c-0.124-0.006-0.188,0.033-0.217,0.151c-0.022,0.091-0.062,0.179-0.099,0.283c0.388,0,0.759,0,1.154,0
		c-0.244,0.652-0.485,1.29-0.727,1.933c-0.331,0-0.658,0.009-0.984-0.003c-0.139-0.006-0.208,0.034-0.236,0.169
		c-0.019,0.087-0.059,0.168-0.096,0.268c0.4,0,0.787,0,1.197,0C17.201,6,17.079,6.323,16.956,6.647
		c-0.098,0.264-0.199,0.526-0.292,0.792c-0.036,0.104-0.086,0.149-0.206,0.146c-0.31-0.01-0.621,0-0.934-0.004
		c-0.083-0.002-0.135,0.014-0.163,0.104c-0.042,0.142-0.099,0.275-0.148,0.412c0.068,0.043,0.139,0.023,0.203,0.023
		c3.192,0.002,6.389-0.002,9.581,0.006c0.203,0.002,0.285-0.074,0.32-0.262c-1.266,0-2.529,0-3.83,0
		c0.965-0.997,1.906-1.969,2.875-2.967c-0.578,0-1.123,0-1.707,0c1.451-1.497,2.871-2.962,4.318-4.453
		c0.189,1.021,0.373,2.016,0.559,3.013c0.064-0.034,0.074-0.101,0.104-0.152c0.373-0.732,0.744-1.468,1.109-2.205
		c0.047-0.094,0.102-0.126,0.205-0.124c0.588,0.004,1.178,0.001,1.781,0.001C30.795,0.648,30.858,0.325,30.92,0
		c0.689,0,1.379,0,2.068,0c-0.063,0.321-0.125,0.644-0.191,0.982c0.705,0,1.381,0,2.057,0C34.856,1.001,34.856,1.012,34.856,1.023z
		 M26.502,2.187c-0.623,0.623-1.24,1.238-1.852,1.851c0.709,0,1.436,0,2.17,0C26.711,3.414,26.608,2.798,26.502,2.187z
		 M29.885,2.957c0.754,0,1.502,0.001,2.254-0.001c0.039,0,0.092,0.021,0.111-0.043c0.041-0.129,0.113-0.25,0.127-0.396
		c-0.648,0-1.285,0-1.924,0c-0.438,0-0.438,0-0.574,0.404C29.877,2.927,29.881,2.932,29.885,2.957z M26.084,4.903
		c0.066,0.361,0.129,0.707,0.201,1.093c0.189-0.381,0.365-0.729,0.549-1.093C26.574,4.903,26.346,4.903,26.084,4.903z M29.717,6.23
		c-0.117-0.011-0.311,0.148-0.32,0.288c-0.006,0.091,0.037,0.136,0.125,0.145c0.146,0.012,0.338-0.145,0.348-0.285
		C29.877,6.287,29.83,6.243,29.717,6.23z M29.004,6.663c0.152,0.001,0.326-0.151,0.334-0.287c0.004-0.102-0.051-0.143-0.145-0.143
		c-0.15,0-0.344,0.175-0.33,0.306C28.869,6.625,28.924,6.667,29.004,6.663z"/>
	<path fill="#4BABF8" d="M22.153,5.29c-0.08,0.273-0.145,0.536-0.229,0.792c-0.205,0.614-0.418,1.227-0.623,1.841
		c-0.031,0.098-0.068,0.133-0.178,0.133c-1.096-0.004-2.191,0-3.29,0c-0.065,0-0.136-0.002-0.201-0.008
		c-0.47-0.031-0.671-0.301-0.563-0.756c0.091-0.379,0.255-0.732,0.39-1.098c0.368-0.992,0.745-1.982,1.114-2.977
		c0.037-0.1,0.084-0.133,0.193-0.133c0.717,0.007,1.436,0.001,2.154,0.006c0.107,0.001,0.168-0.022,0.201-0.138
		c0.063-0.198,0.145-0.39,0.225-0.604c-0.818,0-1.617,0-2.436,0c0.236-0.63,0.469-1.24,0.693-1.852
		c0.02-0.056,0.051-0.078,0.111-0.078c1.391,0.002,2.777,0.002,4.191,0.002c-0.121,0.32-0.232,0.624-0.35,0.928
		c-0.439,1.171-0.881,2.341-1.316,3.513c-0.041,0.114-0.096,0.149-0.217,0.148c-0.711-0.006-1.424,0-2.137-0.005
		c-0.115-0.001-0.168,0.031-0.205,0.142c-0.086,0.256-0.189,0.506-0.281,0.762c-0.063,0.174-0.023,0.226,0.158,0.228
		c0.172,0.002,0.34-0.005,0.51,0.002c0.205,0.01,0.332-0.086,0.402-0.269c0.063-0.163,0.127-0.327,0.188-0.489
		c0.018-0.049,0.031-0.093,0.1-0.093C21.219,5.291,21.676,5.29,22.153,5.29z"/>
	<path fill="#4BABF8" d="M0,6.585c0.338-0.9,0.675-1.8,1.017-2.713c0.063,0,0.132,0,0.199,0c3.267,0,6.533,0,9.801,0.003
		c0.125,0,0.206-0.037,0.286-0.131c0.346-0.403,0.7-0.8,1.051-1.197c0.041-0.046,0.084-0.089,0.128-0.136
		c0.045,0.064-0.003,0.106-0.021,0.146c-0.532,1.175-1.068,2.35-1.599,3.524c-0.05,0.109-0.108,0.141-0.227,0.141
		C7.419,6.219,4.202,6.221,0.986,6.217c-0.188,0-0.353,0.03-0.51,0.135C0.332,6.446,0.18,6.524,0.031,6.609
		C0.02,6.601,0.01,6.593,0,6.585z"/>
	<path fill="#4BABF8" d="M28.887,11.671c-0.117,0.172-0.252,0.332-0.348,0.516c-0.115,0.224-0.285,0.255-0.514,0.199
		c0.025-0.264,0.057-0.529,0.086-0.797c-0.012-0.002-0.02-0.004-0.025-0.004c-0.088,0.223-0.18,0.443-0.258,0.672
		c-0.043,0.123-0.109,0.167-0.236,0.152c-0.094-0.016-0.189-0.006-0.307-0.006c0.18-0.443,0.354-0.869,0.525-1.298
		c0.117-0.29,0.119-0.29,0.441-0.29c0.096,0,0.188,0,0.307,0c-0.033,0.309-0.066,0.602-0.104,0.93
		c0.131-0.117,0.188-0.244,0.271-0.354c0.049-0.067,0.109-0.133,0.141-0.211c0.168-0.419,0.504-0.405,0.877-0.346
		c-0.131,0.326-0.262,0.646-0.393,0.972c-0.031,0.078-0.064,0.155-0.096,0.233c-0.16,0.395-0.16,0.395-0.609,0.353
		c0.094-0.234,0.188-0.467,0.281-0.698C28.914,11.687,28.901,11.681,28.887,11.671z"/>
	<path fill="#4BABF8" d="M21.11,12.406c0.191-0.472,0.371-0.924,0.563-1.373c0.025-0.074,0.023-0.193,0.117-0.207
		c0.141-0.021,0.283-0.011,0.424,0c0.051,0.004,0.049,0.067,0.059,0.11c0.063,0.229,0.119,0.458,0.186,0.726
		c0.096-0.244,0.188-0.455,0.262-0.672c0.045-0.132,0.109-0.195,0.254-0.175c0.1,0.015,0.201,0.002,0.322,0.002
		c-0.211,0.521-0.416,1.025-0.619,1.531c-0.018,0.041-0.045,0.06-0.092,0.06c-0.141-0.002-0.279-0.002-0.426-0.002
		c-0.07-0.272-0.139-0.533-0.209-0.813c-0.092,0.127-0.104,0.269-0.16,0.392c-0.045,0.1-0.09,0.195-0.121,0.299
		c-0.029,0.096-0.078,0.137-0.182,0.127C21.365,12.397,21.248,12.406,21.11,12.406z"/>
	<path fill="#4BABF8" d="M29.608,8.408c0.047,0.579,0.092,1.146,0.139,1.727c-0.574,0-1.139,0-1.697,0
		c-0.027-0.055,0.021-0.086,0.041-0.119c0.299-0.491,0.604-0.979,0.896-1.473c0.064-0.107,0.137-0.15,0.258-0.141
		C29.356,8.415,29.469,8.408,29.608,8.408z"/>
	<path fill="#4BABF8" d="M16.762,12.41c0.213-0.524,0.417-1.02,0.614-1.513c0.025-0.065,0.063-0.082,0.127-0.08
		c0.275,0.004,0.553,0,0.829,0.009c0.135,0.004,0.285,0.021,0.342,0.168c0.055,0.141-0.027,0.262-0.111,0.369
		c-0.059,0.076-0.141,0.131-0.234,0.191c0.174,0.104,0.154,0.241,0.092,0.39c-0.123,0.285-0.359,0.41-0.65,0.443
		C17.443,12.426,17.117,12.397,16.762,12.41z M17.455,12.033c0.064,0,0.114,0,0.164,0c0.09-0.005,0.184,0.006,0.26-0.054
		c0.055-0.045,0.1-0.104,0.079-0.176c-0.02-0.063-0.086-0.059-0.143-0.063C17.56,11.726,17.56,11.726,17.455,12.033z M18.131,11.214
		c-0.327-0.069-0.351-0.06-0.429,0.218C18.035,11.464,18.112,11.429,18.131,11.214z"/>
	<path fill="#4BABF8" d="M15.553,12.178c0.032,0.057,0.061,0.105,0.092,0.16c-0.077,0.095-0.192,0.144-0.309,0.231
		c-0.062-0.22-0.208-0.188-0.376-0.155c-0.148,0.028-0.304,0.021-0.453-0.027c-0.196-0.063-0.294-0.197-0.296-0.404
		c-0.007-0.663,0.713-1.291,1.368-1.194c0.359,0.056,0.504,0.266,0.431,0.623C15.951,11.685,15.852,11.852,15.553,12.178z
		 M15.333,11.783c0.075-0.08,0.109-0.18,0.136-0.273c0.027-0.107,0.067-0.229-0.052-0.307c-0.114-0.076-0.23-0.037-0.33,0.033
		c-0.193,0.143-0.288,0.344-0.328,0.567c-0.034,0.191,0.047,0.262,0.25,0.232c-0.005-0.068-0.078-0.111-0.071-0.189
		c0.097-0.07,0.194-0.143,0.297-0.219C15.272,11.687,15.302,11.733,15.333,11.783z"/>
	<path fill="#4BABF8" d="M26.203,12.426c-0.465,0-0.65-0.235-0.537-0.683c0.156-0.617,0.783-1.051,1.371-0.951
		c0.307,0.051,0.449,0.244,0.402,0.552C27.348,11.962,26.817,12.426,26.203,12.426z M26.369,12.053
		c0.107-0.002,0.199-0.049,0.271-0.121c0.127-0.125,0.207-0.274,0.25-0.448c0.027-0.102,0.057-0.207-0.043-0.279
		c-0.098-0.074-0.209-0.053-0.303,0.008c-0.24,0.154-0.354,0.389-0.373,0.666C26.166,12.003,26.248,12.057,26.369,12.053z"/>
	<path fill="#4BABF8" d="M19.242,12.406c0.121-0.158,0.223-0.291,0.324-0.425c0.26-0.339,0.523-0.677,0.777-1.022
		c0.078-0.106,0.16-0.155,0.293-0.144c0.109,0.013,0.227,0.002,0.346,0.002c0,0.05,0,0.082,0,0.115
		c-0.023,0.482-0.049,0.969-0.072,1.463c-0.166,0-0.326,0-0.492,0c-0.047-0.057,0.014-0.133-0.033-0.199
		c-0.129,0-0.262,0-0.396-0.002c-0.047,0-0.1,0-0.117,0.05c-0.068,0.189-0.229,0.166-0.379,0.162
		C19.42,12.406,19.348,12.406,19.242,12.406z M20.467,11.848c0.004-0.169,0.057-0.325,0.031-0.516
		c-0.125,0.183-0.232,0.341-0.355,0.516C20.264,11.848,20.356,11.848,20.467,11.848z"/>
	<path fill="#4BABF8" d="M25.133,11.421c-0.029-0.262-0.199-0.34-0.404-0.185c-0.201,0.154-0.301,0.377-0.338,0.622
		c-0.021,0.148,0.088,0.221,0.264,0.189c0.059-0.011,0.123-0.027,0.148-0.07c0.152-0.265,0.402-0.18,0.627-0.191
		c0.025,0.063-0.023,0.098-0.049,0.137c-0.271,0.404-0.781,0.599-1.211,0.467c-0.217-0.065-0.313-0.197-0.309-0.426
		c0.01-0.688,0.74-1.291,1.418-1.17c0.287,0.051,0.424,0.269,0.348,0.548c-0.016,0.063-0.049,0.082-0.107,0.079
		C25.391,11.419,25.26,11.421,25.133,11.421z"/>
	<path fill="#4BABF8" d="M11.824,12.406c0.428-0.529,0.168-1.049,0.104-1.574c0.188,0,0.371,0,0.563,0
		c0.062,0.146,0.028,0.314,0.084,0.504c0.121-0.131,0.236-0.242,0.334-0.364c0.094-0.119,0.2-0.168,0.35-0.152
		c0.104,0.014,0.212,0.002,0.36,0.002c-0.07,0.072-0.119,0.123-0.167,0.173c-0.154,0.154-0.303,0.32-0.468,0.469
		c-0.25,0.221-0.443,0.478-0.532,0.804c-0.027,0.104-0.082,0.157-0.204,0.146C12.133,12.395,12.013,12.406,11.824,12.406z"/>
	<path fill="#4BABF8" d="M14.345,10.817c-0.212,0.521-0.416,1.015-0.616,1.515c-0.023,0.06-0.056,0.076-0.113,0.076
		c-0.141-0.002-0.279-0.002-0.443-0.002c0.077-0.195,0.149-0.378,0.222-0.558c0.12-0.296,0.249-0.589,0.36-0.889
		c0.043-0.117,0.104-0.154,0.222-0.146C14.091,10.826,14.207,10.817,14.345,10.817z"/>
	<path fill="#4BABF8" d="M18.508,12.406c0.213-0.525,0.414-1.02,0.613-1.515c0.021-0.051,0.051-0.078,0.113-0.076
		c0.141,0.006,0.277,0.002,0.443,0.002c-0.08,0.198-0.148,0.382-0.225,0.56c-0.125,0.309-0.254,0.613-0.375,0.923
		c-0.029,0.081-0.07,0.114-0.158,0.108C18.795,12.399,18.666,12.406,18.508,12.406z"/>
	<path fill="#4BABF8" d="M15.903,12.397c0.209-0.518,0.41-1.013,0.61-1.506c0.021-0.053,0.051-0.078,0.113-0.076
		c0.14,0.006,0.278,0.002,0.447,0.002c-0.22,0.544-0.433,1.064-0.643,1.58C16.255,12.397,16.093,12.397,15.903,12.397z"/>
	<path fill="#4BABF8" d="M22.944,12.399c0.064-0.159,0.123-0.303,0.184-0.448c0.152,0,0.307,0,0.459,0
		C23.481,12.408,23.459,12.419,22.944,12.399z"/>
</g>
</svg>
