<?xml version="1.0" encoding="utf-8"?>
<!-- Generator: Adobe Illustrator 15.0.0, SVG Export Plug-In . SVG Version: 6.00 Build 0)  -->
<!DOCTYPE svg PUBLIC "-//W3C//DTD SVG 1.1//EN" "http://www.w3.org/Graphics/SVG/1.1/DTD/svg11.dtd">
<svg version="1.1" id="图层_1" xmlns="http://www.w3.org/2000/svg" xmlns:xlink="http://www.w3.org/1999/xlink" x="0px" y="0px"
	 width="60px" height="60px" viewBox="0 0 60 60" enable-background="new 0 0 60 60" xml:space="preserve">
<g>
	<path fill="#6698FF" d="M30,59.984C10.011,59.984,0.016,49.989,0.016,30S10.011,0.017,30,0.017
		c19.989,0,29.983,9.995,29.983,29.984S49.989,59.984,30,59.984z"/>
	<path fill-rule="evenodd" clip-rule="evenodd" fill="#FFFFFF" d="M30.692,20.735c4.81,0,8.71,3.908,8.71,8.729
		c0,4.822-3.9,8.729-8.71,8.729c-4.81,0-8.71-3.907-8.71-8.729C21.982,24.643,25.882,20.735,30.692,20.735z"/>
	<path fill-rule="evenodd" clip-rule="evenodd" fill="#FFFE82" d="M44.06,13.162h4.134c1.158,0,2.096,0.938,2.096,2.095v29.056
		c0,1.155-0.938,2.094-2.096,2.094H44.06c-1.157,0-2.095-0.938-2.095-2.094V15.257C41.965,14.1,42.902,13.162,44.06,13.162z"/>
	<path fill-rule="evenodd" clip-rule="evenodd" fill="#FFFE82" d="M15.578,40.889h30.229v2.565H15.578V40.889z"/>
	<path fill-rule="evenodd" clip-rule="evenodd" fill="#FFFE82" d="M15.578,15.601h30.229v2.567H15.578V15.601z"/>
	<path fill-rule="evenodd" clip-rule="evenodd" fill="#FFFE82" d="M12.294,13.162h4.135c1.157,0,2.095,0.938,2.095,2.095v29.056
		c0,1.155-0.938,2.094-2.095,2.094h-4.135c-1.157,0-2.095-0.938-2.095-2.094V15.257C10.199,14.1,11.137,13.162,12.294,13.162z"/>
	<path fill-rule="evenodd" clip-rule="evenodd" fill="#4C79D6" d="M35.56,29.823c0,0.201-0.049,0.386-0.134,0.537
		c-0.046,0.083-0.104,0.157-0.168,0.216l0.012,0.009l-0.108,0.063c-0.013,0.008-0.026,0.016-0.041,0.024l-1.11,0.648l-5.239,3.15
		l-0.015-0.032c-0.005,0.001-0.01,0.003-0.015,0.006c-0.053,0.018-0.11,0.026-0.168,0.026c-0.366,0-0.666-0.37-0.695-0.838h-0.003
		v-7.847l0.021,0.01c0.075-0.399,0.35-0.695,0.677-0.695c0.06,0,0.119,0.011,0.175,0.03V25.1l6.462,3.885l-0.037,0.021
		C35.402,29.156,35.56,29.465,35.56,29.823z"/>
	<path fill-rule="evenodd" clip-rule="evenodd" fill="#6698FF" d="M13.59,16.627h1.542c0.813,0,1.471,0.659,1.471,1.471v0.14
		c0,0.813-0.658,1.47-1.471,1.47H13.59c-0.812,0-1.471-0.658-1.471-1.47v-0.14C12.12,17.286,12.778,16.627,13.59,16.627z"/>
	<path fill-rule="evenodd" clip-rule="evenodd" fill="#6698FF" d="M13.59,22.275h1.542c0.813,0,1.471,0.659,1.471,1.471v0.14
		c0,0.812-0.658,1.471-1.471,1.471H13.59c-0.812,0-1.471-0.659-1.471-1.471v-0.14C12.12,22.934,12.778,22.275,13.59,22.275z"/>
	<path fill-rule="evenodd" clip-rule="evenodd" fill="#6698FF" d="M13.59,27.923h1.542c0.813,0,1.471,0.659,1.471,1.471v0.14
		c0,0.812-0.658,1.47-1.471,1.47H13.59c-0.812,0-1.471-0.658-1.471-1.47v-0.14C12.12,28.582,12.778,27.923,13.59,27.923z"/>
	<path fill-rule="evenodd" clip-rule="evenodd" fill="#6698FF" d="M13.59,33.442h1.542c0.813,0,1.471,0.658,1.471,1.471v0.14
		c0,0.813-0.658,1.471-1.471,1.471H13.59c-0.812,0-1.471-0.658-1.471-1.471v-0.14C12.12,34.101,12.778,33.442,13.59,33.442z"/>
	<path fill-rule="evenodd" clip-rule="evenodd" fill="#6698FF" d="M13.59,39.09h1.542c0.813,0,1.471,0.66,1.471,1.471v0.141
		c0,0.812-0.658,1.47-1.471,1.47H13.59c-0.812,0-1.471-0.658-1.471-1.47v-0.141C12.12,39.75,12.778,39.09,13.59,39.09z"/>
	<path fill-rule="evenodd" clip-rule="evenodd" fill="#6698FF" d="M45.354,16.627h1.544c0.812,0,1.47,0.659,1.47,1.471v0.14
		c0,0.813-0.658,1.47-1.47,1.47h-1.544c-0.811,0-1.47-0.658-1.47-1.47v-0.14C43.885,17.286,44.544,16.627,45.354,16.627z"/>
	<path fill-rule="evenodd" clip-rule="evenodd" fill="#6698FF" d="M45.354,22.275h1.544c0.812,0,1.47,0.659,1.47,1.471v0.14
		c0,0.812-0.658,1.471-1.47,1.471h-1.544c-0.811,0-1.47-0.659-1.47-1.471v-0.14C43.885,22.934,44.544,22.275,45.354,22.275z"/>
	<path fill-rule="evenodd" clip-rule="evenodd" fill="#6698FF" d="M45.354,27.923h1.544c0.812,0,1.47,0.659,1.47,1.471v0.14
		c0,0.812-0.658,1.47-1.47,1.47h-1.544c-0.811,0-1.47-0.658-1.47-1.47v-0.14C43.885,28.582,44.544,27.923,45.354,27.923z"/>
	<path fill-rule="evenodd" clip-rule="evenodd" fill="#6698FF" d="M45.354,33.442h1.544c0.812,0,1.47,0.658,1.47,1.471v0.14
		c0,0.813-0.658,1.471-1.47,1.471h-1.544c-0.811,0-1.47-0.658-1.47-1.471v-0.14C43.885,34.101,44.544,33.442,45.354,33.442z"/>
	<path fill-rule="evenodd" clip-rule="evenodd" fill="#6698FF" d="M45.354,39.09h1.544c0.812,0,1.47,0.66,1.47,1.471v0.141
		c0,0.812-0.658,1.47-1.47,1.47h-1.544c-0.811,0-1.47-0.658-1.47-1.47v-0.141C43.885,39.75,44.544,39.09,45.354,39.09z"/>
</g>
</svg>
