<?xml version="1.0" encoding="utf-8"?>
<!-- Generator: Adobe Illustrator 15.0.0, SVG Export Plug-In . SVG Version: 6.00 Build 0)  -->
<!DOCTYPE svg PUBLIC "-//W3C//DTD SVG 1.1//EN" "http://www.w3.org/Graphics/SVG/1.1/DTD/svg11.dtd">
<svg version="1.1" id="图层_1" xmlns="http://www.w3.org/2000/svg" xmlns:xlink="http://www.w3.org/1999/xlink" x="0px" y="0px"
	 width="60px" height="60px" viewBox="0 0 60 60" enable-background="new 0 0 60 60" xml:space="preserve">
<g>
	<path fill="#F96E72" d="M30,59.984C10.011,59.984,0.016,49.989,0.016,30S10.011,0.017,30,0.017
		c19.988,0,29.982,9.995,29.982,29.984C59.982,49.99,49.988,59.984,30,59.984z"/>
</g>
<g>
	<path fill-rule="evenodd" clip-rule="evenodd" fill="#FCD95F" d="M48.12,39.85V26.561l2.103-0.688v14.666L48.12,39.85z
		 M46.135,39.199l-1.869-0.611V27.823l1.869-0.612V39.199z M41.58,28.702l1.868-0.612v10.23l-1.868-0.612V28.702z"/>
</g>
<g>
	<path fill-rule="evenodd" clip-rule="evenodd" fill="#747474" d="M8.924,38.662h1.914c0.846,0,1.531,0.686,1.531,1.531v0.127
		c0,0.846-0.685,1.531-1.531,1.531H8.924c-0.845,0-1.531-0.686-1.531-1.531v-0.127C7.394,39.348,8.079,38.662,8.924,38.662z"/>
	<path fill-rule="evenodd" clip-rule="evenodd" fill="#747474" d="M13.063,27.858h2.524v2.411h-2.524V27.858z"/>
	<path fill-rule="evenodd" clip-rule="evenodd" fill="#FFFFFF" d="M36.151,10.98c3.514,0,6.363,2.839,6.363,6.342
		c0,3.502-2.85,6.342-6.363,6.342c-3.515,0-6.364-2.84-6.364-6.342C29.787,13.82,32.637,10.98,36.151,10.98z"/>
	<path fill-rule="evenodd" clip-rule="evenodd" fill="#FFFFFF" d="M23.423,10.98c3.515,0,6.364,2.839,6.364,6.342
		c0,3.502-2.849,6.342-6.364,6.342s-6.364-2.84-6.364-6.342C17.06,13.82,19.909,10.98,23.423,10.98z"/>
	<path fill-rule="evenodd" clip-rule="evenodd" fill="#747474" d="M10.392,39.684h7.654c0.317,0,0.574,0.258,0.574,0.574v0.127
		c0,0.316-0.257,0.574-0.574,0.574h-7.654c-0.317,0-0.574-0.258-0.574-0.574v-0.127C9.817,39.941,10.075,39.684,10.392,39.684z"/>
	<path fill-rule="evenodd" clip-rule="evenodd" fill="#FAFAFA" d="M17.185,23.665h25.204c1.058,0,1.913,0.857,1.913,1.914v15.253
		c0,1.055-0.855,1.912-1.913,1.912H17.185c-1.057,0-1.913-0.857-1.913-1.912V25.579C15.271,24.522,16.128,23.665,17.185,23.665z"/>
	<path fill-rule="evenodd" clip-rule="evenodd" fill="#C4C4C4" d="M19.689,34.357c2.092,0,3.787,1.689,3.787,3.775
		c0,2.084-1.695,3.773-3.787,3.773c-2.091,0-3.787-1.689-3.787-3.773C15.902,36.047,17.598,34.357,19.689,34.357z"/>
	<path fill-rule="evenodd" clip-rule="evenodd" fill="#C4C4C4" d="M35.13,35.406c1.224,0,2.216,0.986,2.216,2.201
		s-0.992,2.201-2.216,2.201s-2.217-0.986-2.217-2.201S33.906,35.406,35.13,35.406z"/>
	<path fill-rule="evenodd" clip-rule="evenodd" fill="#C4C4C4" d="M28.322,35.406c1.224,0,2.217,0.986,2.217,2.201
		s-0.993,2.201-2.217,2.201c-1.224,0-2.217-0.986-2.217-2.201S27.098,35.406,28.322,35.406z"/>
	<path fill-rule="evenodd" clip-rule="evenodd" fill="none" d="M41.579,28.289v8.11l7.783,2.549V25.739L41.579,28.289z"/>
	<path fill-rule="evenodd" clip-rule="evenodd" fill="#C4C4C4" d="M36.203,12.029c2.964,0,5.365,2.394,5.365,5.346
		s-2.401,5.346-5.365,5.346c-2.962,0-5.363-2.394-5.363-5.346S33.241,12.029,36.203,12.029z"/>
	<path fill-rule="evenodd" clip-rule="evenodd" fill="#C4C4C4" d="M23.476,12.029c2.963,0,5.364,2.394,5.364,5.346
		s-2.401,5.346-5.364,5.346s-5.365-2.394-5.365-5.346S20.513,12.029,23.476,12.029z"/>
	<path fill-rule="evenodd" clip-rule="evenodd" fill="#747474" d="M36.256,14.125c1.83,0,3.313,1.478,3.313,3.302
		c0,1.824-1.483,3.302-3.313,3.302c-1.829,0-3.313-1.479-3.313-3.302C32.942,15.604,34.427,14.125,36.256,14.125z"/>
	<path fill-rule="evenodd" clip-rule="evenodd" fill="#747474" d="M23.528,14.125c1.831,0,3.313,1.478,3.313,3.302
		c0,1.824-1.483,3.302-3.313,3.302c-1.83,0-3.313-1.479-3.313-3.302C20.215,15.604,21.699,14.125,23.528,14.125z"/>
	<path fill-rule="evenodd" clip-rule="evenodd" fill="#FCD95F" d="M36.309,15.698c0.988,0,1.788,0.798,1.788,1.782
		c0,0.984-0.8,1.782-1.788,1.782s-1.788-0.798-1.788-1.782C34.521,16.496,35.32,15.698,36.309,15.698z"/>
	<path fill-rule="evenodd" clip-rule="evenodd" fill="#FCD95F" d="M23.581,15.698c0.987,0,1.788,0.798,1.788,1.782
		c0,0.984-0.801,1.782-1.788,1.782c-0.988,0-1.789-0.798-1.789-1.782C21.792,16.496,22.593,15.698,23.581,15.698z"/>
	<path fill-rule="evenodd" clip-rule="evenodd" fill="#747474" d="M15.271,26.81c1.394,0,2.524,1.76,2.524,3.931
		s-1.13,3.931-2.524,3.931"/>
	<path fill-rule="evenodd" clip-rule="evenodd" fill="#747474" d="M19.689,35.197c1.627,0,2.945,1.313,2.945,2.936
		c0,1.619-1.318,2.936-2.945,2.936c-1.626,0-2.945-1.316-2.945-2.936C16.744,36.51,18.063,35.197,19.689,35.197z"/>
	<path fill-rule="evenodd" clip-rule="evenodd" fill="#C4C4C4" d="M25.389,29.536h12.688c1.056,0,1.912,0.856,1.912,1.914v2.043
		c0,1.057-0.856,1.914-1.912,1.914H25.389c-1.057,0-1.913-0.857-1.913-1.914v-2.043C23.476,30.392,24.332,29.536,25.389,29.536z"/>
	<path fill-rule="evenodd" clip-rule="evenodd" fill="#747474" d="M36.098,30.269c1.22,0,2.21,0.987,2.21,2.202
		c0,1.217-0.99,2.201-2.21,2.201s-2.208-0.984-2.208-2.201C33.89,31.256,34.878,30.269,36.098,30.269z"/>
	<path fill-rule="evenodd" clip-rule="evenodd" fill="#747474" d="M33.076,36.832l4.284,0.773l-0.099,0.541l-4.284-0.771
		L33.076,36.832z"/>
	<path fill-rule="evenodd" clip-rule="evenodd" fill="#747474" d="M26.613,36.076l3.643,2.365l-0.304,0.463l-3.644-2.367
		L26.613,36.076z"/>
	<path fill-rule="evenodd" clip-rule="evenodd" fill="#FCD95F" d="M24.001,40.229H42.83v1.678H24.001V40.229z"/>
	<path fill-rule="evenodd" clip-rule="evenodd" fill="#747474" d="M15.271,26.053V25.11c0-0.869,0.707-1.572,1.578-1.572h25.875
		c0.871,0,1.577,0.704,1.577,1.572v0.943"/>
	<path fill-rule="evenodd" clip-rule="evenodd" fill="#FCD95F" d="M13.904,27.229v3.669l-3.577,1.152v-5.975L13.904,27.229z"/>
</g>
</svg>
