<?xml version="1.0" encoding="utf-8"?>
<!-- Generator: Adobe Illustrator 15.0.0, SVG Export Plug-In . SVG Version: 6.00 Build 0)  -->
<!DOCTYPE svg PUBLIC "-//W3C//DTD SVG 1.1//EN" "http://www.w3.org/Graphics/SVG/1.1/DTD/svg11.dtd">
<svg version="1.1" id="图层_1" xmlns="http://www.w3.org/2000/svg" xmlns:xlink="http://www.w3.org/1999/xlink" x="0px" y="0px"
	 width="60px" height="60px" viewBox="0 0 60 60" enable-background="new 0 0 60 60" xml:space="preserve">
<g>
	<path fill="#4DDE72" d="M30,59.984C10.011,59.984,0.016,49.989,0.016,30S10.011,0.017,30,0.017
		c19.988,0,29.982,9.995,29.982,29.984C59.982,49.99,49.988,59.984,30,59.984z"/>
</g>
<g>
	<path fill-rule="evenodd" clip-rule="evenodd" fill="#FCD95F" d="M51.313,32.787l0.666,0.666c0.384,0.384,0.382,1.005-0.001,1.389
		l-0.056,0.055c-0.384,0.383-1.005,0.383-1.389-0.001l-0.665-0.666c-0.383-0.384-0.383-1.005,0.001-1.389l0.056-0.056
		C50.309,32.403,50.93,32.403,51.313,32.787z"/>
	<path fill-rule="evenodd" clip-rule="evenodd" fill="#ECECEC" d="M14.646,17.273h29.648c1.106,0,2.003,0.897,2.003,2.003v27.502
		c0,1.106-0.896,2.003-2.003,2.003H14.646c-1.106,0-2.003-0.896-2.003-2.003V19.276C12.643,18.17,13.54,17.273,14.646,17.273z"/>
	<path fill-rule="evenodd" clip-rule="evenodd" fill="#ECECEC" d="M13.517,12.377h31.78c0.969,0,1.754,0.785,1.754,1.753v0.134
		c0,0.968-0.785,1.753-1.754,1.753h-31.78c-0.968,0-1.753-0.785-1.753-1.753V14.13C11.763,13.162,12.548,12.377,13.517,12.377z"/>
	<path fill-rule="evenodd" clip-rule="evenodd" fill="#F8FDD7" d="M16.535,18.779h25.869v27.868H16.535V18.779z"/>
	<path fill-rule="evenodd" clip-rule="evenodd" fill="#B8A395" d="M19.106,11.122h0.134c0.586,0,1.063,0.476,1.063,1.063v5.907
		c0,0.587-0.477,1.063-1.063,1.063h-0.134c-0.588,0-1.064-0.476-1.064-1.063v-5.907C18.042,11.598,18.518,11.122,19.106,11.122z"/>
	<path fill-rule="evenodd" clip-rule="evenodd" fill="#B8A395" d="M24.254,11.122h0.134c0.587,0,1.063,0.476,1.063,1.063v5.907
		c0,0.587-0.476,1.063-1.063,1.063h-0.134c-0.587,0-1.063-0.476-1.063-1.063v-5.907C23.191,11.598,23.667,11.122,24.254,11.122z"/>
	<path fill-rule="evenodd" clip-rule="evenodd" fill="#B8A395" d="M29.529,11.122h0.133c0.587,0,1.063,0.476,1.063,1.063v5.907
		c0,0.587-0.477,1.063-1.063,1.063h-0.133c-0.588,0-1.064-0.476-1.064-1.063v-5.907C28.465,11.598,28.941,11.122,29.529,11.122z"/>
	<path fill-rule="evenodd" clip-rule="evenodd" fill="#B8A395" d="M34.678,11.122h0.134c0.586,0,1.063,0.476,1.063,1.063v5.907
		c0,0.587-0.477,1.063-1.063,1.063h-0.134c-0.588,0-1.064-0.476-1.064-1.063v-5.907C33.613,11.598,34.09,11.122,34.678,11.122z"/>
	<path fill-rule="evenodd" clip-rule="evenodd" fill="#B8A395" d="M39.826,11.122h0.134c0.587,0,1.063,0.476,1.063,1.063v5.907
		c0,0.587-0.476,1.063-1.063,1.063h-0.134c-0.588,0-1.063-0.476-1.063-1.063v-5.907C38.763,11.598,39.238,11.122,39.826,11.122z"/>
	<path fill-rule="evenodd" clip-rule="evenodd" fill="#ADAAAA" d="M15.531,17.775h27.752v2.008H15.531V17.775z"/>
	<path fill-rule="evenodd" clip-rule="evenodd" fill="#D1D1D1" d="M31.914,42.003h7.292c0.38,0,0.686,0.308,0.686,0.687v0.133
		c0,0.38-0.306,0.687-0.686,0.687h-7.292c-0.379,0-0.687-0.307-0.687-0.687v-0.133C31.228,42.311,31.535,42.003,31.914,42.003z"/>
	<path fill-rule="evenodd" clip-rule="evenodd" fill="#D1D1D1" d="M20.487,36.228h11.561c0.519,0,0.938,0.421,0.938,0.938V37.3
		c0,0.518-0.42,0.938-0.938,0.938H20.487c-0.518,0-0.938-0.42-0.938-0.938v-0.134C19.549,36.648,19.969,36.228,20.487,36.228z"/>
	<path fill-rule="evenodd" clip-rule="evenodd" fill="#D1D1D1" d="M26.138,28.697h13.319c0.449,0,0.813,0.363,0.813,0.812v0.133
		c0,0.449-0.363,0.813-0.813,0.813H26.138c-0.448,0-0.813-0.364-0.813-0.813v-0.133C25.325,29.06,25.689,28.697,26.138,28.697z"/>
	<path fill-rule="evenodd" clip-rule="evenodd" fill="#D1D1D1" d="M19.293,26.06h11.562c0.274,0,0.498,0.223,0.498,0.498v0.133
		c0,0.275-0.224,0.499-0.498,0.499H19.293c-0.274,0-0.498-0.223-0.498-0.499v-0.133C18.795,26.283,19.019,26.06,19.293,26.06z"/>
	<path fill-rule="evenodd" clip-rule="evenodd" fill="#D1D1D1" d="M19.482,22.67h20.101c0.449,0,0.813,0.364,0.813,0.812v0.134
		c0,0.449-0.363,0.812-0.813,0.812H19.482c-0.448,0-0.812-0.363-0.812-0.812v-0.134C18.67,23.034,19.034,22.67,19.482,22.67z"/>
	<path fill-rule="evenodd" clip-rule="evenodd" fill="#D1D1D1" d="M20.675,32.839h18.845c0.205,0,0.371,0.167,0.371,0.373v0.134
		c0,0.205-0.166,0.372-0.371,0.372H20.675c-0.206,0-0.373-0.167-0.373-0.372v-0.134C20.303,33.006,20.469,32.839,20.675,32.839z"/>
	<path fill-rule="evenodd" clip-rule="evenodd" fill="#504F4F" d="M40.366,44.381l0.056,0.056c0.046,0.046,0.046,0.12,0,0.166
		l-1.334,1.332c-0.046,0.046-0.12,0.046-0.166-0.001l-0.055-0.055c-0.048-0.046-0.047-0.121,0-0.167l1.332-1.331
		C40.246,44.334,40.321,44.334,40.366,44.381z"/>
	<path fill-rule="evenodd" clip-rule="evenodd" fill="#70AEEE" d="M41.811,42.938l0.056,0.055c0.321,0.323,0.321,0.845,0,1.167
		l-0.834,0.832c-0.322,0.321-0.845,0.32-1.166-0.001l-0.056-0.056c-0.322-0.322-0.32-0.845,0.001-1.166l0.833-0.832
		C40.967,42.616,41.488,42.616,41.811,42.938z"/>
	<path fill-rule="evenodd" clip-rule="evenodd" fill="#70AEEE" d="M51.783,35.035l-8.667,8.653c-0.461,0.46-1.207,0.46-1.667-0.001
		l-0.388-0.389c-0.46-0.46-0.46-1.206,0.001-1.665l8.667-8.653"/>
</g>
</svg>
