<?xml version="1.0" encoding="utf-8"?>
<!-- Generator: Adobe Illustrator 15.0.0, SVG Export Plug-In . SVG Version: 6.00 Build 0)  -->
<!DOCTYPE svg PUBLIC "-//W3C//DTD SVG 1.1//EN" "http://www.w3.org/Graphics/SVG/1.1/DTD/svg11.dtd">
<svg version="1.1" id="图层_1" xmlns="http://www.w3.org/2000/svg" xmlns:xlink="http://www.w3.org/1999/xlink" x="0px" y="0px"
	 width="60px" height="60px" viewBox="0 0 60 60" enable-background="new 0 0 60 60" xml:space="preserve">
<g>
	<path fill="#F8AC59" d="M30,59.984C10.011,59.984,0.016,49.989,0.016,30S10.011,0.017,30,0.017
		c19.988,0,29.982,9.995,29.982,29.984C59.982,49.99,49.988,59.984,30,59.984z"/>
</g>
<g>
	<path fill-rule="evenodd" clip-rule="evenodd" fill="#7D6651" d="M24.878,13.107h9.97c1.103,0,1.995,0.894,1.995,1.995v0.393
		c0,1.102-0.893,1.995-1.995,1.995h-9.97c-1.102,0-1.995-0.893-1.995-1.995v-0.393C22.883,14,23.777,13.107,24.878,13.107z"/>
	<path fill-rule="evenodd" clip-rule="evenodd" fill="#EBFD83" d="M45.313,30.502c0.01-0.228,0.017-0.456,0.017-0.685
		c0-8.548-6.924-15.477-15.467-15.477c-8.542,0-15.466,6.929-15.466,15.477c0,0.229,0.006,0.457,0.016,0.685h-3.15
		c-0.008-0.228-0.014-0.456-0.014-0.685c0-10.288,8.333-18.627,18.614-18.627s18.614,8.34,18.614,18.627
		c0,0.229-0.006,0.457-0.015,0.685H45.313z"/>
	<path fill-rule="evenodd" clip-rule="evenodd" fill="#EBFD83" d="M42.108,44.049c4.015-1.723,6.554-4.8,5.686-6.886
		c0.299,0.244,0.53,0.537,0.676,0.878c0.893,2.086-1.648,5.178-5.679,6.907c-4.03,1.729-8.021,1.438-8.914-0.647
		c-0.002-0.008-0.005-0.015-0.008-0.021C35.396,45.527,38.738,45.494,42.108,44.049z"/>
	<path fill-rule="evenodd" clip-rule="evenodd" fill="#FD626A" d="M34.163,42.965h3.444c1.166,0,2.11,0.945,2.11,2.111v0.71
		c0,1.166-0.944,2.11-2.11,2.11h-3.444c-1.164,0-2.109-0.944-2.109-2.11v-0.71C32.054,43.91,32.999,42.965,34.163,42.965z"/>
	<path fill-rule="evenodd" clip-rule="evenodd" fill="#FD626A" d="M41.828,26.529h4.813c1.165,0,2.109,0.945,2.109,2.11v10.847
		c0,1.165-0.944,2.109-2.109,2.109h-4.813c-1.166,0-2.11-0.944-2.11-2.109V28.64C39.718,27.474,40.662,26.529,41.828,26.529z"/>
	<path fill-rule="evenodd" clip-rule="evenodd" fill="#FD626A" d="M13.359,26.804h4.814c1.165,0,2.109,0.944,2.109,2.11v10.847
		c0,1.164-0.945,2.109-2.109,2.109h-4.814c-1.165,0-2.109-0.945-2.109-2.109V28.914C11.25,27.748,12.194,26.804,13.359,26.804z"/>
	<path fill-rule="evenodd" clip-rule="evenodd" fill="#7D6651" d="M45.056,41.596h1.643c1.135,0,2.053-0.919,2.053-2.054V28.584
		c0-1.134-0.918-2.055-2.053-2.055h-1.643"/>
	<path fill-rule="evenodd" clip-rule="evenodd" fill="#7D6651" d="M14.945,41.87h-1.643c-1.133,0-2.053-0.92-2.053-2.055V28.858
		c0-1.134,0.919-2.054,2.053-2.054h1.643"/>
	<path fill-rule="evenodd" clip-rule="evenodd" fill="#FFFFFF" d="M33.832,43.788c0.529,0,0.959,0.429,0.959,0.958
		c0,0.53-0.43,0.959-0.959,0.959s-0.957-0.429-0.957-0.959C32.875,44.217,33.303,43.788,33.832,43.788z"/>
	<path fill-rule="evenodd" clip-rule="evenodd" fill="#FFFFFF" d="M41.453,30.09h0.225c0.354,0,0.642,0.288,0.642,0.642v5.978
		c0,0.354-0.287,0.64-0.642,0.64h-0.225c-0.354,0-0.64-0.286-0.64-0.64v-5.978C40.813,30.378,41.1,30.09,41.453,30.09z"/>
	<path fill-rule="evenodd" clip-rule="evenodd" fill="#FFFFFF" d="M18.323,30.365h0.224c0.354,0,0.641,0.286,0.641,0.641v5.979
		c0,0.352-0.287,0.64-0.641,0.64h-0.224c-0.354,0-0.641-0.288-0.641-0.64v-5.979C17.682,30.651,17.969,30.365,18.323,30.365z"/>
</g>
</svg>
