<?xml version="1.0" encoding="utf-8"?>
<!-- Generator: Adobe Illustrator 15.0.0, SVG Export Plug-In . SVG Version: 6.00 Build 0)  -->
<!DOCTYPE svg PUBLIC "-//W3C//DTD SVG 1.1//EN" "http://www.w3.org/Graphics/SVG/1.1/DTD/svg11.dtd">
<svg version="1.1" id="图层_1" xmlns="http://www.w3.org/2000/svg" xmlns:xlink="http://www.w3.org/1999/xlink" x="0px" y="0px"
	 width="60px" height="60px" viewBox="0 0 60 60" enable-background="new 0 0 60 60" xml:space="preserve">
<g>
	<path fill="#8C98F2" d="M30,59.984C10.011,59.984,0.016,49.989,0.016,30S10.011,0.017,30,0.017
		c19.988,0,29.982,9.995,29.982,29.984C59.982,49.99,49.988,59.984,30,59.984z"/>
</g>
<g>
	<path fill-rule="evenodd" clip-rule="evenodd" fill="#8EFC88" d="M12.333,44.97c0-9.723,7.91-19.831,17.667-19.831
		S47.667,35.247,47.667,44.97"/>
	<path fill-rule="evenodd" clip-rule="evenodd" fill="#5EC758" d="M29.326,28.45h0.944v16.453h-0.944V28.45z"/>
	<path fill-rule="evenodd" clip-rule="evenodd" fill="#F8FDB0" d="M29.549,10.514c5.081,0,9.2,4.105,9.2,9.169
		c0,5.063-4.119,9.169-9.2,9.169c-5.082,0-9.201-4.105-9.201-9.169C20.348,14.619,24.467,10.514,29.549,10.514z"/>
	<path fill-rule="evenodd" clip-rule="evenodd" fill="#7A7878" d="M35.934,34.113h1.484c1.116,0,2.022,0.907,2.022,2.024v2.157
		c0,1.118-0.906,2.022-2.022,2.022h-1.484c-1.116,0-2.022-0.904-2.022-2.022v-2.157C33.911,35.021,34.817,34.113,35.934,34.113z"/>
	<path fill-rule="evenodd" clip-rule="evenodd" fill="#5EC758" d="M34.047,33.71h5.259c0.372,0,0.674,0.303,0.674,0.674v0.54
		c0,0.371-0.302,0.674-0.674,0.674h-5.259c-0.374,0-0.675-0.303-0.675-0.674v-0.54C33.372,34.013,33.673,33.71,34.047,33.71z"/>
	<path fill-rule="evenodd" clip-rule="evenodd" fill="#7A7878" d="M22.178,34.113h1.484c1.117,0,2.022,0.907,2.022,2.024v2.157
		c0,1.118-0.906,2.022-2.022,2.022h-1.484c-1.117,0-2.022-0.904-2.022-2.022v-2.157C20.156,35.021,21.061,34.113,22.178,34.113z"/>
	<path fill-rule="evenodd" clip-rule="evenodd" fill="#5EC758" d="M20.291,33.845h5.259c0.373,0,0.675,0.302,0.675,0.675v0.54
		c0,0.372-0.302,0.673-0.675,0.673h-5.259c-0.373,0-0.674-0.301-0.674-0.673v-0.54C19.616,34.146,19.918,33.845,20.291,33.845z"/>
	<path fill="#7A7878" d="M30.81,31.869l-1.23,0.84l-0.657-1.328l1.229-0.84L30.81,31.869z"/>
	<path fill="#7A7878" d="M30.81,36.09l-1.23,0.84l-0.657-1.328l1.229-0.841L30.81,36.09z"/>
	<path fill="#7A7878" d="M30.81,39.814l-1.23,0.841l-0.657-1.329l1.229-0.839L30.81,39.814z"/>
	<path fill-rule="evenodd" clip-rule="evenodd" fill="#A27427" d="M27.29,22.921h5.165l1.186,2.251c0,0-1.532-1.145-1.829-1.115
		c-0.271,0.026-0.335,1.292-0.562,0.934c-0.557-0.878-1.455-1.143-1.462-0.934c-0.014,0.426-0.699,1.115-0.699,1.115
		s-0.36-1.25-0.857-1.25c-0.999,0-2.008,1.25-2.008,1.25L27.29,22.921z"/>
</g>
</svg>
