<?xml version="1.0" encoding="utf-8"?>
<!-- Generator: Adobe Illustrator 15.0.0, SVG Export Plug-In . SVG Version: 6.00 Build 0)  -->
<!DOCTYPE svg PUBLIC "-//W3C//DTD SVG 1.1//EN" "http://www.w3.org/Graphics/SVG/1.1/DTD/svg11.dtd">
<svg version="1.1" id="图层_1" xmlns="http://www.w3.org/2000/svg" xmlns:xlink="http://www.w3.org/1999/xlink" x="0px" y="0px"
	 width="60px" height="60px" viewBox="0 0 60 60" enable-background="new 0 0 60 60" xml:space="preserve">
<g>
	<path fill="#8FC0F8" d="M30,59.984C10.011,59.984,0.016,49.989,0.016,30S10.011,0.017,30,0.017
		c19.988,0,29.982,9.995,29.982,29.984C59.982,49.99,49.988,59.984,30,59.984z"/>
</g>
<g>
	<path fill-rule="evenodd" clip-rule="evenodd" fill="#FD737D" d="M12.027,46.454c0-10.083,8.202-20.565,18.321-20.565
		c10.117,0,18.319,10.482,18.319,20.565"/>
	<path fill="#F5A863" d="M25.58,36.43l-5.149-3.342l-0.615,5.354L25.58,36.43z"/>
	<path fill="#EEF037" d="M24.997,35.803l-5.824-1.806l0.885,5.382L24.997,35.803z"/>
	<path fill-rule="evenodd" clip-rule="evenodd" fill="#7A7878" d="M21.676,36.314h1.539c1.159,0,2.098,0.939,2.098,2.1v2.236
		c0,1.158-0.939,2.098-2.098,2.098h-1.539c-1.159,0-2.098-0.939-2.098-2.098v-2.236C19.579,37.254,20.518,36.314,21.676,36.314z"/>
	<path fill-rule="evenodd" clip-rule="evenodd" fill="#7A7878" d="M29.368,29.462h0.979v17.063h-0.979V29.462z"/>
	<path fill-rule="evenodd" clip-rule="evenodd" fill="#F8FDB0" d="M29.879,10.723c5.269,0,9.539,4.257,9.539,9.508
		c0,5.251-4.271,9.508-9.539,9.508c-5.269,0-9.541-4.257-9.541-9.508C20.338,14.979,24.61,10.723,29.879,10.723z"/>
	<path fill="#7A7878" d="M29.788,30.651l5.454-2.727v5.454L29.788,30.651z"/>
	<path fill-rule="evenodd" clip-rule="evenodd" fill="#7A7878" d="M29.928,29.323c0.85,0,1.537,0.689,1.537,1.538
		c0,0.851-0.688,1.539-1.537,1.539s-1.539-0.688-1.539-1.539C28.389,30.012,29.078,29.323,29.928,29.323z"/>
	<path fill="#7A7878" d="M30.066,30.791l-5.454-2.727v5.454L30.066,30.791z"/>
	<path fill-rule="evenodd" clip-rule="evenodd" fill="#DDDEDD" d="M19.719,36.035h5.454c0.386,0,0.699,0.313,0.699,0.699v0.559
		c0,0.387-0.313,0.7-0.699,0.7h-5.454c-0.386,0-0.699-0.313-0.699-0.7v-0.559C19.02,36.349,19.333,36.035,19.719,36.035z"/>
	<path fill="#FD737D" d="M30.767,34.966l-1.276,0.872l-0.682-1.379l1.275-0.871L30.767,34.966z"/>
	<path fill="#FD737D" d="M30.767,39.342l-1.276,0.871l-0.682-1.377l1.275-0.871L30.767,39.342z"/>
	<path fill="#FD737D" d="M30.767,43.206l-1.276,0.87l-0.682-1.377l1.275-0.871L30.767,43.206z"/>
</g>
</svg>
