<?xml version="1.0" encoding="utf-8"?>
<!-- Generator: Adobe Illustrator 15.0.0, SVG Export Plug-In . SVG Version: 6.00 Build 0)  -->
<!DOCTYPE svg PUBLIC "-//W3C//DTD SVG 1.1//EN" "http://www.w3.org/Graphics/SVG/1.1/DTD/svg11.dtd">
<svg version="1.1" id="图层_1" xmlns="http://www.w3.org/2000/svg" xmlns:xlink="http://www.w3.org/1999/xlink" x="0px" y="0px"
	 width="60px" height="60px" viewBox="0 0 60 60" enable-background="new 0 0 60 60" xml:space="preserve">
<g>
	<path fill="#FC9BCF" d="M30,59.984C10.011,59.984,0.016,49.989,0.016,30S10.011,0.017,30,0.017
		c19.988,0,29.982,9.995,29.982,29.984C59.982,49.99,49.988,59.984,30,59.984z"/>
</g>
<g>
	<path fill-rule="evenodd" clip-rule="evenodd" fill="#FEBF51" d="M32.335,16.862h7.525c1.061,0,1.921,0.86,1.921,1.92v27.562
		c0,1.061-0.86,1.92-1.921,1.92h-7.525c-1.062,0-1.92-0.859-1.92-1.92V18.782C30.415,17.722,31.273,16.862,32.335,16.862z"/>
	<path fill-rule="evenodd" clip-rule="evenodd" fill="#EBE16D" d="M20.14,36.77h7.289c1.061,0,1.92,0.859,1.92,1.921v7.772
		c0,1.061-0.859,1.92-1.92,1.92H20.14c-1.061,0-1.921-0.859-1.921-1.92V38.69C18.219,37.629,19.079,36.77,20.14,36.77z"/>
	<path fill-rule="evenodd" clip-rule="evenodd" fill="#FFFFFF" d="M39.284,19.314h0.129c0.389,0,0.703,0.315,0.703,0.704v24.843
		c0,0.389-0.314,0.704-0.703,0.704h-0.129c-0.39,0-0.704-0.315-0.704-0.704V20.018C38.58,19.629,38.895,19.314,39.284,19.314z"/>
	<path fill-rule="evenodd" clip-rule="evenodd" fill="#FFFFFF" d="M27.503,39.034h0.128c0.389,0,0.705,0.315,0.705,0.704v4.482
		c0,0.39-0.316,0.704-0.705,0.704h-0.128c-0.389,0-0.705-0.314-0.705-0.704v-4.482C26.798,39.35,27.114,39.034,27.503,39.034z"/>
	<path fill-rule="evenodd" clip-rule="evenodd" fill="#EBE16D" d="M20.232,35.969V21.157c0-0.981,0.795-1.778,1.776-1.778h3.67
		c0.981,0,1.776,0.796,1.776,1.778v14.812"/>
	<path fill-rule="evenodd" clip-rule="evenodd" fill="#FFFFFF" d="M25.673,21.512h0.128c0.39,0,0.706,0.315,0.706,0.706v11.861
		c0,0.39-0.316,0.706-0.706,0.706h-0.128c-0.39,0-0.706-0.316-0.706-0.706V22.217C24.968,21.827,25.284,21.512,25.673,21.512z"/>
	<path fill-rule="evenodd" clip-rule="evenodd" fill="#FC5BBA" d="M21.633,18.806l0.407-7.463c0.676-1.181,0.435-1.412,1.624-2.017
		h0.608c0.174,0.202,1.15,0.836,1.421,2.824l0.203,6.657"/>
	<path fill-rule="evenodd" clip-rule="evenodd" fill="#FCD6F0" d="M24.069,10.939c0,0,1.353,0.672,1.421,2.622v4.034h-0.406
		l-0.203-4.235C24.881,13.359,25.017,11.948,24.069,10.939z"/>
	<path fill-rule="evenodd" clip-rule="evenodd" fill="#FEBF51" d="M29.349,46.463c0,1.061-0.859,1.92-1.92,1.92H20.14
		c-1.061,0-1.921-0.859-1.921-1.92"/>
</g>
</svg>
