<?xml version="1.0" encoding="utf-8"?>
<!-- Generator: Adobe Illustrator 15.0.0, SVG Export Plug-In . SVG Version: 6.00 Build 0)  -->
<!DOCTYPE svg PUBLIC "-//W3C//DTD SVG 1.1//EN" "http://www.w3.org/Graphics/SVG/1.1/DTD/svg11.dtd">
<svg version="1.1" id="图层_1" xmlns="http://www.w3.org/2000/svg" xmlns:xlink="http://www.w3.org/1999/xlink" x="0px" y="0px"
	 width="60px" height="60px" viewBox="0 0 60 60" enable-background="new 0 0 60 60" xml:space="preserve">
<g>
	<path fill="#8BE3E0" d="M30,59.984C10.011,59.984,0.016,49.989,0.016,30S10.011,0.017,30,0.017
		c19.988,0,29.982,9.995,29.982,29.984C59.982,49.99,49.988,59.984,30,59.984z"/>
</g>
<g>
	<path fill-rule="evenodd" clip-rule="evenodd" fill="#FFFEBD" d="M39.52,14.098l0.104,0.06c0.431,0.248,0.576,0.797,0.329,1.227
		l-1.678,2.905c-0.247,0.43-0.797,0.577-1.227,0.329l-0.104-0.059c-0.43-0.248-0.576-0.798-0.329-1.228l1.677-2.905
		C38.541,13.998,39.09,13.85,39.52,14.098z"/>
	<path fill-rule="evenodd" clip-rule="evenodd" fill="#FFFEBD" d="M46.729,21.133l0.06,0.104c0.247,0.43,0.101,0.979-0.33,1.228
		l-2.903,1.677c-0.43,0.248-0.979,0.101-1.229-0.329l-0.059-0.104c-0.248-0.43-0.1-0.979,0.328-1.227l2.904-1.677
		C45.931,20.556,46.48,20.703,46.729,21.133z"/>
	<path fill-rule="evenodd" clip-rule="evenodd" fill="#FFFEBD" d="M49.454,30.83v0.12c0,0.495-0.402,0.898-0.898,0.898h-3.353
		c-0.497,0-0.9-0.403-0.9-0.898v-0.12c0-0.496,0.403-0.898,0.9-0.898h3.353C49.052,29.932,49.454,30.334,49.454,30.83z"/>
	<path fill-rule="evenodd" clip-rule="evenodd" fill="#FFFEBD" d="M10.545,31.31v-0.12c0-0.495,0.402-0.898,0.898-0.898h3.354
		c0.496,0,0.898,0.403,0.898,0.898v0.12c0,0.497-0.402,0.898-0.898,0.898h-3.354C10.947,32.208,10.545,31.807,10.545,31.31z"/>
	<path fill-rule="evenodd" clip-rule="evenodd" fill="#FFFEBD" d="M13.031,21.548l0.061-0.104c0.248-0.43,0.797-0.577,1.227-0.33
		l2.904,1.678c0.43,0.248,0.577,0.797,0.329,1.228l-0.061,0.103c-0.248,0.43-0.797,0.577-1.227,0.329l-2.904-1.677
		C12.931,22.527,12.784,21.978,13.031,21.548z"/>
	<path fill-rule="evenodd" clip-rule="evenodd" fill="#FFFEBD" d="M20.065,14.338l0.104-0.061c0.43-0.248,0.979-0.101,1.227,0.329
		l1.677,2.905c0.248,0.43,0.101,0.979-0.329,1.228l-0.104,0.061c-0.43,0.248-0.979,0.101-1.227-0.329l-1.677-2.905
		C19.488,15.135,19.636,14.586,20.065,14.338z"/>
	<path fill-rule="evenodd" clip-rule="evenodd" fill="#FFFEBD" d="M29.76,11.611h0.12c0.496,0,0.898,0.402,0.898,0.898v3.354
		c0,0.497-0.402,0.898-0.898,0.898h-0.12c-0.497,0-0.898-0.402-0.898-0.898v-3.354C28.862,12.013,29.264,11.611,29.76,11.611z"/>
	<path fill-rule="evenodd" clip-rule="evenodd" fill="#999999" d="M25.26,40.723h9.718c0.392,0,0.71,0.318,0.71,0.71v5.647
		c0,0.394-0.318,0.711-0.71,0.711H25.26c-0.393,0-0.71-0.317-0.71-0.711v-5.647C24.55,41.041,24.868,40.723,25.26,40.723z"/>
	<path fill-rule="evenodd" clip-rule="evenodd" fill="#D9D9D9" d="M29.887,19.182c6.474,0,11.722,5.25,11.722,11.725
		c0,6.476-5.248,11.726-11.722,11.726c-6.474,0-11.723-5.25-11.723-11.726C18.164,24.431,23.413,19.182,29.887,19.182z"/>
	<path fill-rule="evenodd" clip-rule="evenodd" fill="#EDECEC" d="M29.66,20.087c5.785,0,10.476,4.692,10.476,10.479
		c0,5.788-4.69,10.479-10.476,10.479c-5.786,0-10.477-4.691-10.477-10.479C19.184,24.779,23.874,20.087,29.66,20.087z"/>
	<path fill-rule="evenodd" clip-rule="evenodd" fill="#FADE44" d="M23.799,46.473h12.76c0.446,0,0.807,0.36,0.807,0.806v0.305
		c0,0.445-0.36,0.807-0.807,0.807h-12.76c-0.445,0-0.806-0.361-0.806-0.807v-0.305C22.993,46.833,23.354,46.473,23.799,46.473z"/>
	<path fill-rule="evenodd" clip-rule="evenodd" fill="#FFFFFF" d="M27.791,21.561c3.439,0,6.229,2.79,6.229,6.23
		c0,3.441-2.79,6.231-6.229,6.231c-3.44,0-6.229-2.79-6.229-6.231C21.562,24.35,24.351,21.561,27.791,21.561z"/>
	<path fill-rule="evenodd" clip-rule="evenodd" fill="#FFFEBD" d="M25.628,22.033c1.323,0,2.396,1.073,2.396,2.396
		s-1.073,2.396-2.396,2.396s-2.396-1.072-2.396-2.396S24.305,22.033,25.628,22.033z"/>
</g>
</svg>
