<?xml version="1.0" encoding="utf-8"?>
<!-- Generator: Adobe Illustrator 15.0.0, SVG Export Plug-In . SVG Version: 6.00 Build 0)  -->
<!DOCTYPE svg PUBLIC "-//W3C//DTD SVG 1.1//EN" "http://www.w3.org/Graphics/SVG/1.1/DTD/svg11.dtd">
<svg version="1.1" id="图层_1" xmlns="http://www.w3.org/2000/svg" xmlns:xlink="http://www.w3.org/1999/xlink" x="0px" y="0px"
	 width="60px" height="60px" viewBox="0 0 60 60" enable-background="new 0 0 60 60" xml:space="preserve">
<g>
	<path fill="#FF7297" d="M30,59.984C10.011,59.984,0.016,49.989,0.016,30S10.011,0.017,30,0.017
		c19.988,0,29.982,9.995,29.982,29.984C59.982,49.99,49.988,59.984,30,59.984z"/>
</g>
<g>
	<path fill-rule="evenodd" clip-rule="evenodd" fill="#FFFFFF" d="M32.705,25.895c-0.195,1.363,0.797,0.956,0.914,1.661
		c0.072,0.445-0.096,0.83-0.516,0.972c-0.422,0.143-0.883-0.089-1.03-0.517S32.768,25.45,32.705,25.895z"/>
	<path fill-rule="evenodd" clip-rule="evenodd" fill="#FFFFFF" d="M31.537,28.83c-1.103,1.756,0.564,1.773,0.304,2.807
		c-0.165,0.652-0.638,1.084-1.326,1.035c-0.689-0.049-1.209-0.633-1.162-1.306S31.898,28.256,31.537,28.83z"/>
	<path fill-rule="evenodd" clip-rule="evenodd" fill="#FFFFFF" d="M28.168,48.717L14.75,43.438l1.131-9.378
		c0,0,8.712,2.473,13.392,1.138c4.679-1.336,11.862-6.484,16.775,1.053c3.015,4.625-3.048,10.125-3.66,9.636L28.168,48.717z"/>
	<path fill-rule="evenodd" clip-rule="evenodd" fill="#EBE16D" d="M22.148,13.485h15.894c0.827,0,1.499,0.671,1.499,1.5v2.999
		c0,0.828-0.672,1.499-1.499,1.499H22.148c-0.828,0-1.5-0.671-1.5-1.499v-2.999C20.648,14.157,21.32,13.485,22.148,13.485z"/>
	<path fill="none" stroke="#EBE16D" stroke-width="2" stroke-miterlimit="10" d="M35.741,22.319c2.13,1.529,4.258,3.952,6.383,7.27
		c7.872,12.289,3.9,18.417-11.916,18.38C14.393,47.934,10.457,41.789,18.4,29.536c1.921-2.964,3.841-5.209,5.758-6.738"/>
	<path fill-rule="evenodd" clip-rule="evenodd" fill="#FF7297" d="M36.793,38.035c1.385,0,2.508,1.121,2.508,2.504
		s-1.123,2.503-2.508,2.503c-1.384,0-2.506-1.12-2.506-2.503S35.409,38.035,36.793,38.035z"/>
	<path fill-rule="evenodd" clip-rule="evenodd" fill="#FF7297" d="M31.78,37.701c0.554,0,1.003,0.447,1.003,1.002
		c0,0.553-0.449,1.001-1.003,1.001s-1.003-0.448-1.003-1.001C30.777,38.148,31.227,37.701,31.78,37.701z"/>
</g>
<line fill-rule="evenodd" clip-rule="evenodd" fill="none" stroke="#EBE16D" stroke-width="2" stroke-miterlimit="10" x1="23.813" y1="18.563" x2="24.771" y2="23.583"/>
<line fill-rule="evenodd" clip-rule="evenodd" fill="none" stroke="#EBE16D" stroke-width="2" stroke-miterlimit="10" x1="36.483" y1="18.563" x2="35.525" y2="23.583"/>
</svg>
